#!OML:ASF X:\für Bonn\!DataBase\2005_08_12_Daniel\c3d\Daniel.ASF
:FULLY-SPECIFIED
:DEGREES
276
root 0.618355 17.0592 0.245549 -68.3616 -89.1793 60.3866
lowerback 17.6471 -0.71566 0.199321
upperback 2.53274 -1.47936 -4.52727
thorax -7.30003 -0.874734 -4.633
lowerneck -5.88614 -0.21946 -3.45218
upperneck -4.89618 -0.339045 -3.11205
head -0.533706 -0.173971 -0.387032
rclavicle 2.48481e-015 1.27222e-014
rhumerus -251.143 -187.782 72.4549
rradius 91.8794
rwrist -5.15646
rhand -30.6908 373.356
rfingers 7.12502
rthumb -3.98451 -16.587
lclavicle 2.48481e-015 1.27222e-014
lhumerus -244.632 181.165 -84.759
lradius 101.81
lwrist 0.728666
lhand -9.76501 363.293
lfingers 7.12502
lthumb 16.2099 32.6356
rfemur 2.81433 12.2162 17.4335
rtibia 28.0532
rfoot -32.0806 -21.8921
rtoes -11.5467
lfemur -6.30336 -19.1173 -19.6401
ltibia 38.3259
lfoot -29.4642 9.30467
ltoes -0.60592
277
root 0.649015 17.0641 0.247313 -68.2895 -89.1626 60.5342
lowerback 17.624 -0.750754 0.0914029
upperback 2.5686 -1.54941 -4.55798
thorax -7.25283 -0.906501 -4.58693
lowerneck -5.70548 -0.196796 -3.448
upperneck -4.96782 -0.322365 -3.1742
head -0.584545 -0.162202 -0.406157
rclavicle -1.08338e-014 -4.92986e-014
rhumerus -251.531 -188.686 72.5342
rradius 92.1548
rwrist -4.71709
rhand -30.0342 374.071
rfingers 7.12502
rthumb -3.35047 -15.8822
lclavicle -1.08338e-014 -4.92986e-014
lhumerus -245.073 181.615 -85.0684
lradius 102.23
lwrist 0.597112
lhand -9.29012 362.998
lfingers 7.12502
lthumb 16.6672 32.3027
rfemur 2.29872 11.7323 17.1674
rtibia 28.2122
rfoot -31.7007 -21.5053
rtoes -11.4878
lfemur -6.71683 -19.0893 -19.5245
ltibia 38.3477
lfoot -29.3336 9.27454
ltoes -0.550258
278
root 0.680169 17.0691 0.250048 -68.1527 -89.1471 60.6055
lowerback 17.6065 -0.784949 -0.00998951
upperback 2.61068 -1.61633 -4.5819
thorax -7.20152 -0.936829 -4.53798
lowerneck -5.51659 -0.179544 -3.4635
upperneck -5.02115 -0.310503 -3.21611
head -0.631203 -0.15255 -0.416079
rclavicle 2.48481e-015 1.74931e-014
rhumerus -251.829 -189.624 72.6719
rradius 92.4732
rwrist -4.27157
rhand -29.2782 374.726
rfingers 7.12502
rthumb -2.62036 -15.2373
lclavicle 2.48481e-015 1.74931e-014
lhumerus -245.311 182.082 -85.3558
lradius 102.581
lwrist 0.4715
lhand -8.66476 362.883
lfingers 7.12502
lthumb 17.2691 32.1362
rfemur 1.78876 11.1697 16.8848
rtibia 28.369
rfoot -31.2693 -21.0712
rtoes -11.4545
lfemur -7.1236 -19.0922 -19.4226
ltibia 38.3855
lfoot -29.2086 9.27332
ltoes -0.497842
279
root 0.710321 17.0737 0.252905 -69.2064 -89.127 61.8325
lowerback 17.6256 -0.814644 -0.118695
upperback 2.64827 -1.68141 -4.61816
thorax -7.17497 -0.966887 -4.4989
lowerneck -5.25662 -0.163717 -3.42695
upperneck -5.09089 -0.30697 -3.27734
head -0.694544 -0.146342 -0.440377
rclavicle -1.2921e-015 1.90833e-014
rhumerus -252.004 -190.557 72.8249
rradius 92.7553
rwrist -3.86058
rhand -28.4131 375.317
rfingers 7.12502
rthumb -1.78491 -14.6549
lclavicle -1.2921e-015 1.90833e-014
lhumerus -245.387 182.597 -85.6581
lradius 102.916
lwrist 0.446775
lhand -7.94028 362.962
lfingers 7.12502
lthumb 17.9663 32.1518
rfemur 1.31768 10.6266 16.6065
rtibia 28.5287
rfoot -30.8222 -20.6531
rtoes -11.4379
lfemur -7.48992 -19.0359 -19.3426
ltibia 38.4299
lfoot -29.0771 9.26273
ltoes -0.40686
280
root 0.740392 17.0777 0.25701 -71.097 -89.1122 63.8858
lowerback 17.6281 -0.839043 -0.224021
upperback 2.69908 -1.73741 -4.64665
thorax -7.12393 -0.992318 -4.45533
lowerneck -4.98593 -0.136762 -3.39744
upperneck -5.15657 -0.288649 -3.34473
head -0.758664 -0.132437 -0.465405
rclavicle -3.57812e-015 1.59028e-014
rhumerus -252.021 -191.529 73.006
rradius 92.9683
rwrist -3.46679
rhand -27.6066 375.823
rfingers 7.12502
rthumb -1.00594 -14.154
lclavicle -3.57812e-015 1.59028e-014
lhumerus -245.271 183.13 -85.9465
lradius 103.238
lwrist 0.512388
lhand -7.16018 363.18
lfingers 7.12502
lthumb 18.7168 32.2995
rfemur 0.866134 10.0785 16.3293
rtibia 28.681
rfoot -30.3951 -20.1945
rtoes -11.417
lfemur -7.84155 -19.0078 -19.2768
ltibia 38.4842
lfoot -28.9694 9.26533
ltoes -0.364241
281
root 0.770178 17.0809 0.261411 -73.372 -89.1065 66.2647
lowerback 17.6927 -0.857673 -0.320552
upperback 2.75382 -1.78622 -4.67225
thorax -7.10199 -1.01499 -4.41538
lowerneck -4.68967 -0.122839 -3.38972
upperneck -5.2071 -0.286284 -3.39592
head -0.822525 -0.125913 -0.482182
rclavicle 6.95746e-015 2.70347e-014
rhumerus -251.91 -192.507 73.1915
rradius 93.0949
rwrist -3.15261
rhand -26.8375 376.239
rfingers 7.12502
rthumb -0.263124 -13.7401
lclavicle 6.95746e-015 2.70347e-014
lhumerus -245.055 183.728 -86.2514
lradius 103.539
lwrist 0.755655
lhand -6.33539 363.441
lfingers 7.12502
lthumb 19.5099 32.4822
rfemur 0.477464 9.52523 16.0692
rtibia 28.8417
rfoot -29.9734 -19.6958
rtoes -11.2797
lfemur -8.11648 -18.9864 -19.2344
ltibia 38.5349
lfoot -28.8902 9.30243
ltoes -0.338853
